<?xml version="1.0" encoding="UTF-8"?>
<svg xmlns="http://www.w3.org/2000/svg" viewBox="0 0 800 500" width="800" height="500">
  <!-- Background -->
  <rect width="800" height="500" fill="#f5f5f5"/>
  
  <!-- Doctor figure -->
  <g transform="translate(400, 250)">
    <!-- Head -->
    <circle cx="0" cy="-100" r="60" fill="#f5d0a9"/>
    
    <!-- Hair -->
    <path d="M-60,-100 Q-70,-150 0,-160 Q70,-150 60,-100 Q30,-120 0,-120 Q-30,-120 -60,-100" fill="#5e3a1c"/>
    
    <!-- Face -->
    <ellipse cx="-20" cy="-90" rx="5" ry="8" fill="#333"/>
    <ellipse cx="20" cy="-90" rx="5" ry="8" fill="#333"/>
    <path d="M-15,-70 Q0,-60 15,-70" fill="none" stroke="#333" stroke-width="2" stroke-linecap="round"/>
    
    <!-- Lab coat -->
    <path d="M-60,-40 L-90,100 L-40,100 L-30,20 L30,20 L40,100 L90,100 L60,-40 Q30,-50 0,-50 Q-30,-50 -60,-40" fill="#fff" stroke="#ddd" stroke-width="2"/>
    
    <!-- Neck -->
    <path d="M-15,-40 L-15,-10 L15,-10 L15,-40" fill="#f5d0a9"/>
    
    <!-- Stethoscope -->
    <path d="M-20,-10 Q-40,20 -30,50 Q-25,70 0,70 Q25,70 30,50 Q40,20 20,-10" fill="none" stroke="#4285f4" stroke-width="4" stroke-linecap="round"/>
    <circle cx="0" cy="60" r="8" fill="#4285f4"/>
    
    <!-- Arms -->
    <path d="M-60,-30 L-100,30" fill="none" stroke="#f5d0a9" stroke-width="20" stroke-linecap="round"/>
    <path d="M60,-30 L100,30" fill="none" stroke="#f5d0a9" stroke-width="20" stroke-linecap="round"/>
    
    <!-- Hands -->
    <circle cx="-100" cy="30" r="15" fill="#f5d0a9"/>
    <circle cx="100" cy="30" r="15" fill="#f5d0a9"/>
    
    <!-- Clipboard -->
    <rect x="60" y="40" width="50" height="70" rx="5" fill="#f9cb9c"/>
    <rect x="65" y="50" width="40" height="5" fill="#fff"/>
    <rect x="65" y="60" width="40" height="5" fill="#fff"/>
    <rect x="65" y="70" width="40" height="5" fill="#fff"/>
    <rect x="65" y="80" width="40" height="5" fill="#fff"/>
    <rect x="65" y="90" width="25" height="5" fill="#fff"/>
  </g>
  
  <!-- Medical symbols -->
  <g transform="translate(150, 100)">
    <circle cx="0" cy="0" r="30" fill="#ff9800" opacity="0.7"/>
    <rect x="-5" y="-20" width="10" height="40" fill="#fff"/>
    <rect x="-20" y="-5" width="40" height="10" fill="#fff"/>
  </g>
  
  <g transform="translate(650, 100)">
    <circle cx="0" cy="0" r="30" fill="#ff9800" opacity="0.7"/>
    <rect x="-5" y="-20" width="10" height="40" fill="#fff"/>
    <rect x="-20" y="-5" width="40" height="10" fill="#fff"/>
  </g>
</svg>
