<?xml version="1.0" encoding="UTF-8"?>
<svg xmlns="http://www.w3.org/2000/svg" viewBox="0 0 400 400" width="400" height="400">
  <!-- Background -->
  <rect width="400" height="400" fill="#f9f9f9" rx="20" ry="20"/>
  
  <!-- Doctor figure -->
  <g transform="translate(200, 200)">
    <!-- Head -->
    <circle cx="0" cy="-80" r="50" fill="#e6c6a0"/>
    
    <!-- Hair -->
    <path d="M-50,-80 Q-60,-130 0,-140 Q60,-130 50,-80 Q25,-100 0,-100 Q-25,-100 -50,-80" fill="#222"/>
    
    <!-- Face -->
    <ellipse cx="-15" cy="-80" rx="4" ry="6" fill="#333"/>
    <ellipse cx="15" cy="-80" rx="4" ry="6" fill="#333"/>
    <path d="M-10,-60 Q0,-50 10,-60" fill="none" stroke="#333" stroke-width="2" stroke-linecap="round"/>
    
    <!-- Glasses -->
    <path d="M-30,-80 L-15,-80 M15,-80 L30,-80" fill="none" stroke="#555" stroke-width="2"/>
    <circle cx="-15" cy="-80" r="12" fill="none" stroke="#555" stroke-width="2"/>
    <circle cx="15" cy="-80" r="12" fill="none" stroke="#555" stroke-width="2"/>
    
    <!-- Lab coat -->
    <path d="M-50,-30 L-70,100 L-30,100 L-20,0 L20,0 L30,100 L70,100 L50,-30 Q25,-40 0,-40 Q-25,-40 -50,-30" fill="#fff" stroke="#eee" stroke-width="2"/>
    
    <!-- Shirt -->
    <path d="M-20,-30 L-20,0 L20,0 L20,-30" fill="#b3e5fc"/>
    
    <!-- Neck -->
    <path d="M-10,-30 L-10,-10 L10,-10 L10,-30" fill="#e6c6a0"/>
    
    <!-- Stethoscope -->
    <path d="M0,-10 Q-30,30 -20,60 Q-15,80 0,80 Q15,80 20,60 Q30,30 0,-10" fill="none" stroke="#1976d2" stroke-width="3" stroke-linecap="round"/>
    <circle cx="0" cy="70" r="6" fill="#1976d2"/>
    
    <!-- ID Badge -->
    <rect x="-15" y="10" width="30" height="40" rx="3" fill="#ffecb3" stroke="#e6ac00" stroke-width="1"/>
    <rect x="-10" y="15" width="20" height="15" fill="#fff"/>
    <line x1="-8" y1="35" x2="8" y2="35" stroke="#333" stroke-width="1"/>
    <line x1="-8" y1="40" x2="8" y2="40" stroke="#333" stroke-width="1"/>
  </g>
  
  <!-- Medical symbols -->
  <g transform="translate(60, 60)">
    <circle cx="0" cy="0" r="20" fill="#ff9800" opacity="0.2"/>
    <rect x="-3" y="-12" width="6" height="24" fill="#ff9800"/>
    <rect x="-12" y="-3" width="24" height="6" fill="#ff9800"/>
  </g>
  
  <!-- Text "Internal Medicine" -->
  <g transform="translate(200, 350)">
    <rect x="-100" y="-15" width="200" height="30" rx="15" fill="#ff9800" opacity="0.1"/>
  </g>
</svg>
